<svg width="440" height="36" viewBox="0 0 440 36" fill="none" xmlns="http://www.w3.org/2000/svg">
<g clip-path="url(#clip0)">
<path d="M0.634 20V5.42H6.178V6.932H2.668V20H0.634ZM5.54772 20V18.488C5.81172 18.5 6.05172 18.482 6.26772 18.434C6.49572 18.386 6.69372 18.272 6.86172 18.092C7.04172 17.912 7.19772 17.63 7.32972 17.246C7.46172 16.862 7.57572 16.34 7.67172 15.68C7.76772 15.02 7.85172 14.186 7.92372 13.178L8.40972 5.42H14.8177V20H12.7837V6.932H10.1557L9.81372 13.178C9.75372 14.114 9.67572 14.96 9.57972 15.716C9.48372 16.46 9.33972 17.114 9.14772 17.678C8.96772 18.23 8.72172 18.692 8.40972 19.064C8.10972 19.424 7.72572 19.682 7.25772 19.838C6.78972 19.994 6.21972 20.048 5.54772 20ZM16.3127 20L19.4087 5.42H21.3707L24.4847 20H22.5587L21.8927 16.328H18.9227L18.2207 20H16.3127ZM19.1927 14.87H21.6227L20.3987 8.3L19.1927 14.87ZM25.9641 20V5.42H29.3121C29.9721 5.42 30.5421 5.492 31.0221 5.636C31.5141 5.78 31.9221 6.002 32.2461 6.302C32.5701 6.602 32.8101 6.986 32.9661 7.454C33.1221 7.91 33.2001 8.45 33.2001 9.074C33.2001 9.674 33.1221 10.196 32.9661 10.64C32.8221 11.072 32.5941 11.414 32.2821 11.666C31.9821 11.918 31.5921 12.08 31.1121 12.152C31.7001 12.284 32.1741 12.512 32.5341 12.836C32.8941 13.148 33.1581 13.556 33.3261 14.06C33.5061 14.552 33.5961 15.146 33.5961 15.842C33.5961 16.466 33.5241 17.036 33.3801 17.552C33.2361 18.068 33.0081 18.506 32.6961 18.866C32.3961 19.226 32.0061 19.508 31.5261 19.712C31.0581 19.904 30.5001 20 29.8521 20H25.9641ZM27.9981 18.542H29.3661C30.2781 18.542 30.8841 18.332 31.1841 17.912C31.4961 17.48 31.6521 16.79 31.6521 15.842C31.6521 15.23 31.5681 14.72 31.4001 14.312C31.2441 13.892 30.9861 13.58 30.6261 13.376C30.2781 13.16 29.8041 13.052 29.2041 13.052H27.9981V18.542ZM27.9981 11.504H29.2041C29.7801 11.504 30.2301 11.426 30.5541 11.27C30.8781 11.102 31.1061 10.838 31.2381 10.478C31.3701 10.118 31.4361 9.65 31.4361 9.074C31.4361 8.402 31.3341 7.916 31.1301 7.616C30.9261 7.316 30.6081 7.13 30.1761 7.058C29.7441 6.974 29.1801 6.932 28.4841 6.932H27.9981V11.504ZM35.4035 20V5.42H37.4375V11.72H41.1815V5.42H43.2155V20H41.1815V13.178H37.4375V20H35.4035ZM44.7014 20L47.7974 5.42H49.7594L52.8734 20H50.9474L50.2814 16.328H47.3114L46.6094 20H44.7014ZM47.5814 14.87H50.0114L48.7874 8.3L47.5814 14.87ZM53.4528 20L56.5128 13.448C55.8648 13.16 55.3428 12.686 54.9468 12.026C54.5628 11.354 54.3708 10.496 54.3708 9.452C54.3708 8.672 54.5148 7.982 54.8028 7.382C55.0908 6.77 55.5708 6.29 56.2428 5.942C56.9148 5.594 57.8148 5.42 58.9428 5.42H61.8948V20H59.8608V13.952H58.7088C58.6848 13.952 58.6068 13.952 58.4748 13.952C58.3428 13.94 58.2648 13.934 58.2408 13.934L55.7208 20H53.4528ZM59.1048 12.494H59.8608V6.878H59.0508C58.1388 6.878 57.4488 7.076 56.9808 7.472C56.5248 7.868 56.2968 8.522 56.2968 9.434C56.2968 10.466 56.5068 11.234 56.9268 11.738C57.3468 12.242 58.0728 12.494 59.1048 12.494Z" fill="black"/>
<line x1="-52.5" y1="33" x2="115.5" y2="35" stroke="#68B738" stroke-width="2"/>
</g>
<g clip-path="url(#clip1)">
<path d="M98.134 20V5.42H100.168V11.9H100.924L103.534 5.42H105.568L102.688 12.35L105.928 20H103.894L100.942 12.89H100.168V20H98.134ZM106.483 20L109.579 5.42H111.541L114.655 20H112.729L112.063 16.328H109.093L108.391 20H106.483ZM109.363 14.87H111.793L110.569 8.3L109.363 14.87ZM117.261 20V6.932H114.795V5.42H121.689V6.932H119.295V20H117.261ZM122.303 20L125.399 5.42H127.361L130.475 20H128.549L127.883 16.328H124.913L124.211 20H122.303ZM125.183 14.87H127.613L126.389 8.3L125.183 14.87ZM130.856 20V18.488C131.12 18.5 131.36 18.482 131.576 18.434C131.804 18.386 132.002 18.272 132.17 18.092C132.35 17.912 132.506 17.63 132.638 17.246C132.77 16.862 132.884 16.34 132.98 15.68C133.076 15.02 133.16 14.186 133.232 13.178L133.718 5.42H140.126V20H138.092V6.932H135.464L135.122 13.178C135.062 14.114 134.984 14.96 134.888 15.716C134.792 16.46 134.648 17.114 134.456 17.678C134.276 18.23 134.03 18.692 133.718 19.064C133.418 19.424 133.034 19.682 132.566 19.838C132.098 19.994 131.528 20.048 130.856 20ZM146.139 20.162C145.155 20.162 144.369 19.97 143.781 19.586C143.193 19.202 142.773 18.656 142.521 17.948C142.269 17.228 142.143 16.388 142.143 15.428V9.902C142.143 8.942 142.269 8.12 142.521 7.436C142.785 6.74 143.205 6.212 143.781 5.852C144.369 5.48 145.155 5.294 146.139 5.294C147.123 5.294 147.903 5.48 148.479 5.852C149.055 6.224 149.469 6.752 149.721 7.436C149.985 8.12 150.117 8.942 150.117 9.902V15.446C150.117 16.394 149.985 17.222 149.721 17.93C149.469 18.638 149.055 19.19 148.479 19.586C147.903 19.97 147.123 20.162 146.139 20.162ZM146.139 18.56C146.679 18.56 147.087 18.452 147.363 18.236C147.639 18.008 147.825 17.696 147.921 17.3C148.017 16.892 148.065 16.418 148.065 15.878V9.488C148.065 8.948 148.017 8.486 147.921 8.102C147.825 7.706 147.639 7.406 147.363 7.202C147.087 6.986 146.679 6.878 146.139 6.878C145.599 6.878 145.185 6.986 144.897 7.202C144.621 7.406 144.435 7.706 144.339 8.102C144.243 8.486 144.195 8.948 144.195 9.488V15.878C144.195 16.418 144.243 16.892 144.339 17.3C144.435 17.696 144.621 18.008 144.897 18.236C145.185 18.452 145.599 18.56 146.139 18.56ZM152.116 20V5.42H157.66V6.932H154.15V20H152.116ZM163.173 20V5.42H171.201V20H169.167V6.878H165.207V20H163.173ZM173.474 20V5.42H177.092C177.968 5.42 178.664 5.582 179.18 5.906C179.708 6.218 180.092 6.674 180.332 7.274C180.572 7.874 180.692 8.6 180.692 9.452C180.692 10.22 180.554 10.886 180.278 11.45C180.014 12.014 179.618 12.452 179.09 12.764C178.562 13.064 177.902 13.214 177.11 13.214H175.508V20H173.474ZM175.508 11.756H176.444C177.032 11.756 177.494 11.69 177.83 11.558C178.166 11.426 178.406 11.198 178.55 10.874C178.694 10.538 178.766 10.07 178.766 9.47C178.766 8.774 178.712 8.24 178.604 7.868C178.508 7.496 178.298 7.238 177.974 7.094C177.65 6.95 177.146 6.878 176.462 6.878H175.508V11.756ZM185.848 20.162C184.864 20.162 184.078 19.97 183.49 19.586C182.902 19.202 182.482 18.656 182.23 17.948C181.978 17.228 181.852 16.388 181.852 15.428V9.902C181.852 8.942 181.978 8.12 182.23 7.436C182.494 6.74 182.914 6.212 183.49 5.852C184.078 5.48 184.864 5.294 185.848 5.294C186.832 5.294 187.612 5.48 188.188 5.852C188.764 6.224 189.178 6.752 189.43 7.436C189.694 8.12 189.826 8.942 189.826 9.902V15.446C189.826 16.394 189.694 17.222 189.43 17.93C189.178 18.638 188.764 19.19 188.188 19.586C187.612 19.97 186.832 20.162 185.848 20.162ZM185.848 18.56C186.388 18.56 186.796 18.452 187.072 18.236C187.348 18.008 187.534 17.696 187.63 17.3C187.726 16.892 187.774 16.418 187.774 15.878V9.488C187.774 8.948 187.726 8.486 187.63 8.102C187.534 7.706 187.348 7.406 187.072 7.202C186.796 6.986 186.388 6.878 185.848 6.878C185.308 6.878 184.894 6.986 184.606 7.202C184.33 7.406 184.144 7.706 184.048 8.102C183.952 8.486 183.904 8.948 183.904 9.488V15.878C183.904 16.418 183.952 16.892 184.048 17.3C184.144 17.696 184.33 18.008 184.606 18.236C184.894 18.452 185.308 18.56 185.848 18.56ZM190.889 22.646V18.542H191.555C191.759 18.374 191.957 18.17 192.149 17.93C192.353 17.69 192.539 17.378 192.707 16.994C192.887 16.598 193.049 16.094 193.193 15.482C193.337 14.858 193.463 14.078 193.571 13.142C193.691 12.206 193.781 11.072 193.841 9.74L194.075 5.42H200.177V18.542H201.581V22.646H200.015L199.853 20H192.617L192.455 22.646H190.889ZM193.445 18.542H198.161V6.932H195.803L195.659 10.226C195.611 11.522 195.533 12.614 195.425 13.502C195.329 14.378 195.209 15.104 195.065 15.68C194.933 16.244 194.777 16.706 194.597 17.066C194.429 17.414 194.243 17.696 194.039 17.912C193.847 18.128 193.649 18.338 193.445 18.542ZM202.931 22.214V20.648C203.555 20.708 204.035 20.708 204.371 20.648C204.719 20.588 204.959 20.462 205.091 20.27C205.235 20.09 205.307 19.844 205.307 19.532C205.307 19.208 205.271 18.824 205.199 18.38L202.319 5.42H204.245L205.469 11.63L206.207 16.256L206.855 11.666L207.953 5.42H209.897L207.287 18.416C207.167 19.004 207.065 19.52 206.981 19.964C206.909 20.408 206.801 20.786 206.657 21.098C206.525 21.41 206.321 21.656 206.045 21.836C205.769 22.016 205.379 22.136 204.875 22.196C204.383 22.256 203.735 22.262 202.931 22.214ZM211.249 20V5.42H213.283V11.9H214.039L216.649 5.42H218.683L215.803 12.35L219.043 20H217.009L214.057 12.89H213.283V20H211.249ZM228.418 22.646L228.256 20H220.39V5.42H222.424V18.542H226.564V5.42H228.598V18.542H229.984V22.646H228.418ZM231.587 20V5.42H233.387V15.518L237.653 5.42H239.111V20H237.329V9.74L233.099 20H231.587ZM241.396 20V5.42H243.196V15.518L247.462 5.42H248.92V20H247.138V9.74L242.908 20H241.396Z" fill="black"/>
</g>
<g clip-path="url(#clip2)">
<path d="M288.134 20V5.42H296.162V20H294.128V6.878H290.168V20H288.134ZM302.161 20.162C301.177 20.162 300.391 19.97 299.803 19.586C299.215 19.202 298.795 18.656 298.543 17.948C298.291 17.228 298.165 16.388 298.165 15.428V9.902C298.165 8.942 298.291 8.12 298.543 7.436C298.807 6.74 299.227 6.212 299.803 5.852C300.391 5.48 301.177 5.294 302.161 5.294C303.145 5.294 303.925 5.48 304.501 5.852C305.077 6.224 305.491 6.752 305.743 7.436C306.007 8.12 306.139 8.942 306.139 9.902V15.446C306.139 16.394 306.007 17.222 305.743 17.93C305.491 18.638 305.077 19.19 304.501 19.586C303.925 19.97 303.145 20.162 302.161 20.162ZM302.161 18.56C302.701 18.56 303.109 18.452 303.385 18.236C303.661 18.008 303.847 17.696 303.943 17.3C304.039 16.892 304.087 16.418 304.087 15.878V9.488C304.087 8.948 304.039 8.486 303.943 8.102C303.847 7.706 303.661 7.406 303.385 7.202C303.109 6.986 302.701 6.878 302.161 6.878C301.621 6.878 301.207 6.986 300.919 7.202C300.643 7.406 300.457 7.706 300.361 8.102C300.265 8.486 300.217 8.948 300.217 9.488V15.878C300.217 16.418 300.265 16.892 300.361 17.3C300.457 17.696 300.643 18.008 300.919 18.236C301.207 18.452 301.621 18.56 302.161 18.56ZM307.202 22.646V18.542H307.868C308.072 18.374 308.27 18.17 308.462 17.93C308.666 17.69 308.852 17.378 309.02 16.994C309.2 16.598 309.362 16.094 309.506 15.482C309.65 14.858 309.776 14.078 309.884 13.142C310.004 12.206 310.094 11.072 310.154 9.74L310.388 5.42H316.49V18.542H317.894V22.646H316.328L316.166 20H308.93L308.768 22.646H307.202ZM309.758 18.542H314.474V6.932H312.116L311.972 10.226C311.924 11.522 311.846 12.614 311.738 13.502C311.642 14.378 311.522 15.104 311.378 15.68C311.246 16.244 311.09 16.706 310.91 17.066C310.742 17.414 310.556 17.696 310.352 17.912C310.16 18.128 309.962 18.338 309.758 18.542ZM319.423 20V5.42H325.687V6.896H321.457V11.486H321.907C322.963 11.486 323.833 11.612 324.517 11.864C325.213 12.104 325.729 12.53 326.065 13.142C326.413 13.754 326.587 14.618 326.587 15.734C326.587 16.49 326.497 17.138 326.317 17.678C326.137 18.206 325.855 18.644 325.471 18.992C325.099 19.34 324.625 19.598 324.049 19.766C323.485 19.922 322.807 20 322.015 20H319.423ZM321.457 18.542H322.033C322.633 18.542 323.125 18.476 323.509 18.344C323.905 18.2 324.193 17.924 324.373 17.516C324.565 17.108 324.661 16.508 324.661 15.716C324.661 14.72 324.469 14.012 324.085 13.592C323.713 13.172 323.011 12.962 321.979 12.962H321.457V18.542ZM332.044 20.162C331.06 20.162 330.274 19.97 329.686 19.586C329.098 19.202 328.678 18.656 328.426 17.948C328.174 17.228 328.048 16.388 328.048 15.428V9.902C328.048 8.942 328.174 8.12 328.426 7.436C328.69 6.74 329.11 6.212 329.686 5.852C330.274 5.48 331.06 5.294 332.044 5.294C333.028 5.294 333.808 5.48 334.384 5.852C334.96 6.224 335.374 6.752 335.626 7.436C335.89 8.12 336.022 8.942 336.022 9.902V15.446C336.022 16.394 335.89 17.222 335.626 17.93C335.374 18.638 334.96 19.19 334.384 19.586C333.808 19.97 333.028 20.162 332.044 20.162ZM332.044 18.56C332.584 18.56 332.992 18.452 333.268 18.236C333.544 18.008 333.73 17.696 333.826 17.3C333.922 16.892 333.97 16.418 333.97 15.878V9.488C333.97 8.948 333.922 8.486 333.826 8.102C333.73 7.706 333.544 7.406 333.268 7.202C332.992 6.986 332.584 6.878 332.044 6.878C331.504 6.878 331.09 6.986 330.802 7.202C330.526 7.406 330.34 7.706 330.244 8.102C330.148 8.486 330.1 8.948 330.1 9.488V15.878C330.1 16.418 330.148 16.892 330.244 17.3C330.34 17.696 330.526 18.008 330.802 18.236C331.09 18.452 331.504 18.56 332.044 18.56ZM338.021 20V5.42H341.639C342.515 5.42 343.211 5.582 343.727 5.906C344.255 6.218 344.639 6.674 344.879 7.274C345.119 7.874 345.239 8.6 345.239 9.452C345.239 10.22 345.101 10.886 344.825 11.45C344.561 12.014 344.165 12.452 343.637 12.764C343.109 13.064 342.449 13.214 341.657 13.214H340.055V20H338.021ZM340.055 11.756H340.991C341.579 11.756 342.041 11.69 342.377 11.558C342.713 11.426 342.953 11.198 343.097 10.874C343.241 10.538 343.313 10.07 343.313 9.47C343.313 8.774 343.259 8.24 343.151 7.868C343.055 7.496 342.845 7.238 342.521 7.094C342.197 6.95 341.693 6.878 341.009 6.878H340.055V11.756ZM350.782 20V5.42H358.81V20H356.776V6.878H352.816V20H350.782ZM361.083 20V5.42H364.701C365.577 5.42 366.273 5.582 366.789 5.906C367.317 6.218 367.701 6.674 367.941 7.274C368.181 7.874 368.301 8.6 368.301 9.452C368.301 10.22 368.163 10.886 367.887 11.45C367.623 12.014 367.227 12.452 366.699 12.764C366.171 13.064 365.511 13.214 364.719 13.214H363.117V20H361.083ZM363.117 11.756H364.053C364.641 11.756 365.103 11.69 365.439 11.558C365.775 11.426 366.015 11.198 366.159 10.874C366.303 10.538 366.375 10.07 366.375 9.47C366.375 8.774 366.321 8.24 366.213 7.868C366.117 7.496 365.907 7.238 365.583 7.094C365.259 6.95 364.755 6.878 364.071 6.878H363.117V11.756ZM373.458 20.162C372.474 20.162 371.688 19.97 371.1 19.586C370.512 19.202 370.092 18.656 369.84 17.948C369.588 17.228 369.462 16.388 369.462 15.428V9.902C369.462 8.942 369.588 8.12 369.84 7.436C370.104 6.74 370.524 6.212 371.1 5.852C371.688 5.48 372.474 5.294 373.458 5.294C374.442 5.294 375.222 5.48 375.798 5.852C376.374 6.224 376.788 6.752 377.04 7.436C377.304 8.12 377.436 8.942 377.436 9.902V15.446C377.436 16.394 377.304 17.222 377.04 17.93C376.788 18.638 376.374 19.19 375.798 19.586C375.222 19.97 374.442 20.162 373.458 20.162ZM373.458 18.56C373.998 18.56 374.406 18.452 374.682 18.236C374.958 18.008 375.144 17.696 375.24 17.3C375.336 16.892 375.384 16.418 375.384 15.878V9.488C375.384 8.948 375.336 8.486 375.24 8.102C375.144 7.706 374.958 7.406 374.682 7.202C374.406 6.986 373.998 6.878 373.458 6.878C372.918 6.878 372.504 6.986 372.216 7.202C371.94 7.406 371.754 7.706 371.658 8.102C371.562 8.486 371.514 8.948 371.514 9.488V15.878C371.514 16.418 371.562 16.892 371.658 17.3C371.754 17.696 371.94 18.008 372.216 18.236C372.504 18.452 372.918 18.56 373.458 18.56ZM379.435 20V5.42H384.979V6.932H381.469V20H379.435ZM386.378 20V5.42H389.996C390.872 5.42 391.568 5.582 392.084 5.906C392.612 6.218 392.996 6.674 393.236 7.274C393.476 7.874 393.596 8.6 393.596 9.452C393.596 10.22 393.458 10.886 393.182 11.45C392.918 12.014 392.522 12.452 391.994 12.764C391.466 13.064 390.806 13.214 390.014 13.214H388.412V20H386.378ZM388.412 11.756H389.348C389.936 11.756 390.398 11.69 390.734 11.558C391.07 11.426 391.31 11.198 391.454 10.874C391.598 10.538 391.67 10.07 391.67 9.47C391.67 8.774 391.616 8.24 391.508 7.868C391.412 7.496 391.202 7.238 390.878 7.094C390.554 6.95 390.05 6.878 389.366 6.878H388.412V11.756ZM394.024 20L397.12 5.42H399.082L402.196 20H400.27L399.604 16.328H396.634L395.932 20H394.024ZM396.904 14.87H399.334L398.11 8.3L396.904 14.87ZM403.639 20L403.909 5.42H405.907L408.481 17.246L411.073 5.42H413.053L413.323 20H411.685L411.523 9.416L409.057 20H407.905L405.457 9.416L405.295 20H403.639ZM415.522 20L415.792 5.42H417.79L420.364 17.246L422.956 5.42H424.936L425.206 20H423.568L423.406 9.416L420.94 20H419.788L417.34 9.416L417.178 20H415.522ZM427.441 20V5.42H429.475V11.486H430.051C431.107 11.486 431.977 11.612 432.661 11.864C433.345 12.104 433.855 12.53 434.191 13.142C434.539 13.754 434.713 14.618 434.713 15.734C434.713 16.49 434.623 17.138 434.443 17.678C434.263 18.206 433.981 18.644 433.597 18.992C433.225 19.34 432.751 19.598 432.175 19.766C431.611 19.922 430.933 20 430.141 20H427.441ZM429.475 18.542H430.141C430.753 18.542 431.251 18.476 431.635 18.344C432.031 18.2 432.325 17.924 432.517 17.516C432.709 17.108 432.805 16.508 432.805 15.716C432.805 14.72 432.613 14.012 432.229 13.592C431.845 13.172 431.137 12.962 430.105 12.962H429.475V18.542ZM436.225 20V5.42H438.259V20H436.225Z" fill="black"/>
</g>
<defs>
<clipPath id="clip0">
<rect width="63" height="36" fill="white"/>
</clipPath>
<clipPath id="clip1">
<rect width="154" height="24" fill="white" transform="translate(97)"/>
</clipPath>
<clipPath id="clip2">
<rect width="153" height="24" fill="white" transform="translate(287)"/>
</clipPath>
</defs>
</svg>
